<svg xmlns="http://www.w3.org/2000/svg" width="901" height="591" viewBox="0 0 901 591"><defs><style type="text/css"/></defs><g transform="translate(487.8453529343803 267.2) scale(1)"><g class="relationship"><g transform="translate(0 0) rotate(180)" stroke-width="5" stroke="#000000"><path d="M 58.695178092152055 -5.989663490593891 L 95.96898050729243 -9.793341079425122 A 40 40 0 0 1 100.02976931447472 -10 L 187.02033271719014 -10 L 274.01089611990557 -10 A 40 40 0 0 1 278.0716849270879 -9.79334107942512 L 290.6117863547258 -8.51366206436971 L 290.6117863547258 -8.51366206436971"/><polygon points="-24.8621506177483,0 -27.62461179749811,9.20820393249937 0,0 -27.62461179749811,-9.20820393249937" fill="#000000" transform="translate(374.0406654343803 0) rotate(5.826689442008371) translate(-59 0)" stroke="none"/></g><g transform="translate(-187.02033271719014 10.000000000000023) rotate(360) translate(0 -13)"><g transform="translate(0 0)"><g transform="translate(-66.19921875 0)" fill="#ffffff" stroke="#000000" stroke-width="0"><rect x="0" y="0" width="132.3984375" height="26" rx="5" ry="5" stroke="none"/><text xml:space="preserve" x="5" y="17.45703125" stroke="none" text-anchor="left" font-family="sans-serif" font-size="16" font-weight="normal" fill="#000000">ORIGINATES_IN</text></g></g></g></g><g class="relationship"><g transform="translate(0 0) rotate(180)" stroke-width="5" stroke="#000000"><path d="M 58.695178092152055 5.989663490593891 L 95.96898050729243 9.793341079425122 A 40 40 0 0 0 100.02976931447472 10 L 187.02033271719014 10 L 274.01089611990557 10 A 40 40 0 0 0 278.0716849270879 9.79334107942512 L 290.6117863547258 8.51366206436971 L 290.6117863547258 8.51366206436971"/><polygon points="-24.8621506177483,0 -27.62461179749811,9.20820393249937 0,0 -27.62461179749811,-9.20820393249937" fill="#000000" transform="translate(374.0406654343803 0) rotate(-5.826689442008371) translate(-59 0)" stroke="none"/></g><g transform="translate(-187.02033271719014 -9.999999999999977) rotate(360) translate(0 -13)"><g transform="translate(0 0)"><g transform="translate(-41.4453125 0)" fill="#ffffff" stroke="#000000" stroke-width="0"><rect x="0" y="0" width="82.890625" height="26" rx="5" ry="5" stroke="none"/><text xml:space="preserve" x="5" y="17.45703125" stroke="none" text-anchor="left" font-family="sans-serif" font-size="16" font-weight="normal" fill="#000000">AFFECTS</text></g></g></g></g><g class="relationship"><g transform="translate(0 0) rotate(135)" stroke-width="5" stroke="#000000"><path d="M 59 0 L 290.17851481663195 0"/><polygon points="-24.8621506177483,0 -27.62461179749811,9.20820393249937 0,0 -27.62461179749811,-9.20820393249937" fill="#000000" transform="translate(315.04066543438023 0) rotate(0)" stroke="none"/></g><g transform="translate(-123.4532478357439 123.45324783574391) rotate(315) translate(0 -20.2)"><g transform="translate(0 0)"><g transform="translate(-81.44921875 0)" fill="#ffffff" stroke="#000000" stroke-width="0"><rect x="0" y="0" width="162.8984375" height="26" rx="5" ry="5" stroke="none"/><text xml:space="preserve" x="5" y="17.45703125" stroke="none" text-anchor="left" font-family="sans-serif" font-size="16" font-weight="normal" fill="#000000">EXTRACTED_FROM</text></g></g><g transform="translate(0 26)"><g transform="translate(-31.6845703125 0)" fill="white"><rect x="0" y="0" width="63.369140625" height="14.399999999999999" rx="0" ry="0" stroke="none"/><g font-family="sans-serif" font-size="12" font-weight="normal" fill="#000000" text-anchor="end"><text xml:space="preserve" x="56.701171875" y="10.5427734375" stroke="none">thread_ts:</text><text xml:space="preserve" x="60.03515625" y="10.5427734375" stroke="none" text-anchor="start"></text></g></g></g></g></g><g class="relationship"><g transform="translate(0 0) rotate(36.03030542690358)" stroke-width="5" stroke="#000000"><path d="M 57.103468881828555 -14.838929936556681 L 91.25752410136127 -23.714216191070207 A 40 40 0 0 1 101.31781558377257 -25 L 187.02033271719017 -25 L 272.72284985060776 -25 A 40 40 0 0 1 282.78314133301905 -23.71421619107021 L 292.87422970279033 -21.09194198891069 L 292.87422970279033 -21.09194198891069"/><polygon points="-24.8621506177483,0 -27.62461179749811,9.20820393249937 0,0 -27.62461179749811,-9.20820393249937" fill="#000000" transform="translate(374.04066543438034 0) rotate(14.566723605020927) translate(-59 0)" stroke="none"/></g><g transform="translate(165.94978932392584 89.7901568825511) rotate(36.03030542690358) translate(0 -22.4)"><g transform="translate(0 0)"><g transform="translate(-29.78125 0)" fill="#ffffff" stroke="#000000" stroke-width="0"><rect x="0" y="0" width="59.5625" height="16" rx="0" ry="0" stroke="none"/><text xml:space="preserve" x="0" y="12.45703125" stroke="none" text-anchor="left" font-family="sans-serif" font-size="16" font-weight="normal" fill="#000000">DIGEST</text></g></g><g transform="translate(0 16)"><g transform="translate(-35.021484375 0)" fill="white"><rect x="0" y="0" width="70.04296875" height="28.799999999999997" rx="0" ry="0" stroke="none"/><g font-family="sans-serif" font-size="12" font-weight="normal" fill="#000000" text-anchor="end"><text xml:space="preserve" x="63.375" y="10.5427734375" stroke="none">score:</text><text xml:space="preserve" x="66.708984375" y="10.5427734375" stroke="none" text-anchor="start"></text><text xml:space="preserve" x="63.375" y="24.942773437499998" stroke="none" text-anchor="end">created_at:</text><text xml:space="preserve" x="66.708984375" y="24.942773437499998" stroke="none" text-anchor="start"></text></g></g></g></g></g><g class="relationship"><g transform="translate(0 0) rotate(36.03030542690358)" stroke-width="5" stroke="#000000"><path d="M 57.103468881828555 14.838929936556681 L 91.25752410136127 23.714216191070207 A 40 40 0 0 0 101.31781558377257 25 L 187.02033271719017 25 L 272.72284985060776 25 A 40 40 0 0 0 282.78314133301905 23.71421619107021 L 292.87422970279033 21.09194198891069 L 292.87422970279033 21.09194198891069"/><polygon points="-24.8621506177483,0 -27.62461179749811,9.20820393249937 0,0 -27.62461179749811,-9.20820393249937" fill="#000000" transform="translate(374.04066543438034 0) rotate(-14.566723605020927) translate(-59 0)" stroke="none"/></g><g transform="translate(136.53913517442854 130.2254560962166) rotate(36.03030542690358) translate(0 -9)"><g transform="translate(0 0)"><g transform="translate(-40.42578125 0)" fill="#ffffff" stroke="#000000" stroke-width="0"><rect x="0" y="0" width="80.8515625" height="18" rx="1" ry="1" stroke="none"/><text xml:space="preserve" x="1" y="13.45703125" stroke="none" text-anchor="left" font-family="sans-serif" font-size="16" font-weight="normal" fill="#000000">INVOLVES</text></g></g></g></g><g class="node"><g fill="#ffffff" stroke="#000000" stroke-width="4"><circle cx="0" cy="0" r="52"/></g><g transform="translate(0 0)"><g transform="scale(0.6835940664062501) translate(0 0)"><g transform="translate(0 0)"><g font-family="sans-serif" font-size="50" font-weight="normal" fill="#000000" text-anchor="middle"><text xml:space="preserve" x="0" y="13.92822265625" stroke="none">Atom</text></g></g></g><g transform="translate(3.429011037612589e-15 -267.2)"><g transform="translate(0 0)"><g transform="translate(-93.84765625 0)" fill="white"><rect x="0" y="0" width="187.6953125" height="211.2" rx="0" ry="0" stroke="none"/><g font-family="sans-serif" font-size="16" font-weight="normal" fill="#000000" text-anchor="end"><text xml:space="preserve" x="130.7578125" y="14.05703125" stroke="none">atom_id:</text><text xml:space="preserve" x="135.203125" y="14.05703125" stroke="none" text-anchor="start">unique</text><text xml:space="preserve" x="130.7578125" y="33.25703125" stroke="none" text-anchor="end">type:</text><text xml:space="preserve" x="135.203125" y="33.25703125" stroke="none" text-anchor="start"></text><text xml:space="preserve" x="130.7578125" y="52.45703125" stroke="none" text-anchor="end">summary:</text><text xml:space="preserve" x="135.203125" y="52.45703125" stroke="none" text-anchor="start"></text><text xml:space="preserve" x="130.7578125" y="71.65703125" stroke="none" text-anchor="end">detail:</text><text xml:space="preserve" x="135.203125" y="71.65703125" stroke="none" text-anchor="start"></text><text xml:space="preserve" x="130.7578125" y="90.85703124999999" stroke="none" text-anchor="end">urgency:</text><text xml:space="preserve" x="135.203125" y="90.85703124999999" stroke="none" text-anchor="start"></text><text xml:space="preserve" x="130.7578125" y="110.05703125" stroke="none" text-anchor="end">confidence:</text><text xml:space="preserve" x="135.203125" y="110.05703125" stroke="none" text-anchor="start"></text><text xml:space="preserve" x="130.7578125" y="129.25703125" stroke="none" text-anchor="end">implicit_decision:</text><text xml:space="preserve" x="135.203125" y="129.25703125" stroke="none" text-anchor="start"></text><text xml:space="preserve" x="130.7578125" y="148.45703125" stroke="none" text-anchor="end">phase_relevance:</text><text xml:space="preserve" x="135.203125" y="148.45703125" stroke="none" text-anchor="start"></text><text xml:space="preserve" x="130.7578125" y="167.65703125" stroke="none" text-anchor="end">channel:</text><text xml:space="preserve" x="135.203125" y="167.65703125" stroke="none" text-anchor="start"></text><text xml:space="preserve" x="130.7578125" y="186.85703125" stroke="none" text-anchor="end">thread_ts:</text><text xml:space="preserve" x="135.203125" y="186.85703125" stroke="none" text-anchor="start"></text><text xml:space="preserve" x="130.7578125" y="206.05703125" stroke="none" text-anchor="end">created_at:</text><text xml:space="preserve" x="135.203125" y="206.05703125" stroke="none" text-anchor="start"></text></g></g></g></g></g></g><g class="node"><g fill="#ffffff" stroke="#000000" stroke-width="4"><circle cx="-374.0406654343803" cy="0" r="52"/></g><g transform="translate(-374.0406654343803 0)"><g transform="scale(0.32617254882812496) translate(0 0)"><g transform="translate(0 0)"><g font-family="sans-serif" font-size="50" font-weight="normal" fill="#000000" text-anchor="middle"><text xml:space="preserve" x="0" y="13.92822265625" stroke="none">Workstream</text></g></g></g><g transform="translate(-56 -9.599999999999993)"><g transform="translate(0 0)"><g transform="translate(-57.8046875 0)" fill="white"><rect x="0" y="0" width="57.8046875" height="19.2" rx="0" ry="0" stroke="none"/><g font-family="sans-serif" font-size="16" font-weight="normal" fill="#000000" text-anchor="end"><text xml:space="preserve" x="48.9140625" y="14.05703125" stroke="none">name:</text><text xml:space="preserve" x="53.359375" y="14.05703125" stroke="none" text-anchor="start"></text></g></g></g></g></g></g><g class="node"><g fill="#ffffff" stroke="#000000" stroke-width="4"><circle cx="-264.4866909681789" cy="264.48669096817895" r="52"/></g><g transform="translate(-264.4866909681789 264.48669096817895)"><g transform="scale(0.45703179296874996) translate(0 0)"><g transform="translate(0 0)"><g font-family="sans-serif" font-size="50" font-weight="normal" fill="#000000" text-anchor="middle"><text xml:space="preserve" x="0" y="13.92822265625" stroke="none">Channel</text></g></g></g><g transform="translate(-39.597979746446654 39.59797974644666)"><g transform="translate(0 0)"><g transform="translate(-57.8046875 0)" fill="white"><rect x="0" y="0" width="57.8046875" height="19.2" rx="0" ry="0" stroke="none"/><g font-family="sans-serif" font-size="16" font-weight="normal" fill="#000000" text-anchor="end"><text xml:space="preserve" x="48.9140625" y="14.05703125" stroke="none">name:</text><text xml:space="preserve" x="53.359375" y="14.05703125" stroke="none" text-anchor="start"></text></g></g></g></g></g></g><g class="node"><g fill="#ffffff" stroke="#000000" stroke-width="4"><circle cx="302.4889244983544" cy="220.0156129787677" r="52"/></g><g transform="translate(302.4889244983544 220.0156129787677)"><g transform="scale(0.5312504687499999) translate(0 0)"><g transform="translate(0 0)"><g font-family="sans-serif" font-size="50" font-weight="normal" fill="#000000" text-anchor="middle"><text xml:space="preserve" x="0" y="13.92822265625" stroke="none">Person</text></g></g></g><g transform="translate(39.59797974644666 39.597979746446654)"><g transform="translate(0 0)"><g transform="translate(0 0)" fill="white"><rect x="0" y="0" width="70.2578125" height="19.2" rx="0" ry="0" stroke="none"/><g font-family="sans-serif" font-size="16" font-weight="normal" fill="#000000" text-anchor="end"><text xml:space="preserve" x="61.3671875" y="14.05703125" stroke="none">user_id:</text><text xml:space="preserve" x="65.8125" y="14.05703125" stroke="none" text-anchor="start"></text></g></g></g></g></g></g></g></svg>