<svg xmlns="http://www.w3.org/2000/svg" width="940" height="602" viewBox="0 0 940 602"><defs><style type="text/css"/></defs><g transform="translate(487.8453529343803 252.81711664126718) scale(1)"><g class="relationship"><g transform="translate(-34.723352070683546 14.382883358732812) rotate(-177.57281616026054)" stroke-width="5" stroke="#000000"><path d="M 58.695178092152055 -5.989663490593891 L 95.96898050729243 -9.793341079425122 A 40 40 0 0 1 100.02976931447472 -10 L 169.81100264858287 -10 L 239.59223598269105 -10 A 40 40 0 0 1 243.65302478987334 -9.79334107942512 L 256.19312621751124 -8.51366206436971 L 256.19312621751124 -8.51366206436971"/><polygon points="-24.8621506177483,0 -27.62461179749811,9.20820393249937 0,0 -27.62461179749811,-9.20820393249937" fill="#000000" transform="translate(339.62200529716574 0) rotate(5.826689442008371) translate(-59 0)" stroke="none"/></g><g transform="translate(-204.80550555587206 17.18247017785249) rotate(2.4271838397394436) translate(0 -13)"><g transform="translate(0 0)"><g transform="translate(-66.19921875 0)" fill="#ffffff" stroke="#000000" stroke-width="0"><rect x="0" y="0" width="132.3984375" height="26" rx="5" ry="5" stroke="none"/><text xml:space="preserve" x="5" y="17.45703125" stroke="none" text-anchor="left" font-family="sans-serif" font-size="16" font-weight="normal" fill="#000000">ORIGINATES_IN</text></g></g></g></g><g class="relationship"><g transform="translate(-34.723352070683546 14.382883358732812) rotate(-177.57281616026054)" stroke-width="5" stroke="#000000"><path d="M 58.695178092152055 5.989663490593891 L 95.96898050729243 9.793341079425122 A 40 40 0 0 0 100.02976931447472 10 L 169.81100264858287 10 L 239.59223598269105 10 A 40 40 0 0 0 243.65302478987334 9.79334107942512 L 256.19312621751124 8.51366206436971 L 256.19312621751124 8.51366206436971"/><polygon points="-24.8621506177483,0 -27.62461179749811,9.20820393249937 0,0 -27.62461179749811,-9.20820393249937" fill="#000000" transform="translate(339.62200529716574 0) rotate(-5.826689442008371) translate(-59 0)" stroke="none"/></g><g transform="translate(-203.95851194919175 -2.7995868191196323) rotate(2.4271838397394436) translate(0 -13)"><g transform="translate(0 0)"><g transform="translate(-41.4453125 0)" fill="#ffffff" stroke="#000000" stroke-width="0"><rect x="0" y="0" width="82.890625" height="26" rx="5" ry="5" stroke="none"/><text xml:space="preserve" x="5" y="17.45703125" stroke="none" text-anchor="left" font-family="sans-serif" font-size="16" font-weight="normal" fill="#000000">AFFECTS</text></g></g></g></g><g class="relationship"><g transform="translate(-34.723352070683546 14.382883358732812) rotate(135)" stroke-width="5" stroke="#000000"><path d="M 59 0 L 255.7598546794175 0"/><polygon points="-24.8621506177483,0 -27.62461179749811,9.20820393249937 0,0 -27.62461179749811,-9.20820393249937" fill="#000000" transform="translate(280.6220052971658 0) rotate(0)" stroke="none"/></g><g transform="translate(-146.0077659152377 125.66729720328699) rotate(315) translate(0 -22.6)"><g transform="translate(0 0)"><g transform="translate(-81.44921875 0)" fill="#ffffff" stroke="#000000" stroke-width="0"><rect x="0" y="0" width="162.8984375" height="26" rx="5" ry="5" stroke="none"/><text xml:space="preserve" x="5" y="17.45703125" stroke="none" text-anchor="left" font-family="sans-serif" font-size="16" font-weight="normal" fill="#000000">EXTRACTED_FROM</text></g></g><g transform="translate(0 26)"><g transform="translate(-42.24609375 0)" fill="white"><rect x="0" y="0" width="84.4921875" height="19.2" rx="0" ry="0" stroke="none"/><g font-family="sans-serif" font-size="16" font-weight="normal" fill="#000000" text-anchor="end"><text xml:space="preserve" x="75.6015625" y="14.05703125" stroke="none">thread_ts:</text><text xml:space="preserve" x="80.046875" y="14.05703125" stroke="none" text-anchor="start"></text></g></g></g></g></g><g class="relationship"><g transform="translate(-34.723352070683546 14.382883358732812) rotate(-15.000000000000002)" stroke-width="5" stroke="#000000"><path d="M 59 0 L 255.7598546794175 0"/><polygon points="-24.8621506177483,0 -27.62461179749811,9.20820393249937 0,0 -27.62461179749811,-9.20820393249937" fill="#000000" transform="translate(280.6220052971658 0) rotate(0)" stroke="none"/></g><g transform="translate(117.29398428623813 -26.350039153634704) rotate(-15.000000000000002) translate(0 -9)"><g transform="translate(0 0)"><g transform="translate(-40.42578125 0)" fill="#ffffff" stroke="#000000" stroke-width="0"><rect x="0" y="0" width="80.8515625" height="18" rx="1" ry="1" stroke="none"/><text xml:space="preserve" x="1" y="13.45703125" stroke="none" text-anchor="left" font-family="sans-serif" font-size="16" font-weight="normal" fill="#000000">INVOLVES</text></g></g></g></g><g class="relationship"><g transform="translate(293.3263140219317 -73.51775974808291) rotate(105)" stroke-width="5" stroke="#000000"><path d="M 59 0 L 255.7598546794175 0"/><polygon points="-24.8621506177483,0 -27.62461179749811,9.20820393249937 0,0 -27.62461179749811,-9.20820393249937" fill="#000000" transform="translate(280.6220052971658 0) rotate(0)" stroke="none"/></g><g transform="translate(252.59339150956416 78.49957660883877) rotate(285) translate(0 -13)"><g transform="translate(0 0)"><g transform="translate(-55.6796875 0)" fill="#ffffff" stroke="#000000" stroke-width="0"><rect x="0" y="0" width="111.359375" height="26" rx="5" ry="5" stroke="none"/><text xml:space="preserve" x="5" y="17.45703125" stroke="none" text-anchor="left" font-family="sans-serif" font-size="16" font-weight="normal" fill="#000000">HAS_DIGEST</text></g></g></g></g><g class="relationship"><g transform="translate(205.425670915116 254.53190634453233) rotate(-135)" stroke-width="5" stroke="#000000"><path d="M 59 0 L 255.75985467941754 0"/><polygon points="-24.8621506177483,0 -27.62461179749811,9.20820393249937 0,0 -27.62461179749811,-9.20820393249937" fill="#000000" transform="translate(280.62200529716586 0) rotate(0)" stroke="none"/></g><g transform="translate(94.1412570705618 143.2474924999781) rotate(45) translate(0 -22.6)"><g transform="translate(0 0)"><g transform="translate(-45.453125 0)" fill="#ffffff" stroke="#000000" stroke-width="0"><rect x="0" y="0" width="90.90625" height="26" rx="5" ry="5" stroke="none"/><text xml:space="preserve" x="5" y="17.45703125" stroke="none" text-anchor="left" font-family="sans-serif" font-size="16" font-weight="normal" fill="#000000">INCLUDES</text></g></g><g transform="translate(0 26)"><g transform="translate(-28.453125 0)" fill="white"><rect x="0" y="0" width="56.90625" height="19.2" rx="0" ry="0" stroke="none"/><g font-family="sans-serif" font-size="16" font-weight="normal" fill="#000000" text-anchor="end"><text xml:space="preserve" x="48.015625" y="14.05703125" stroke="none">score:</text><text xml:space="preserve" x="52.4609375" y="14.05703125" stroke="none" text-anchor="start"></text></g></g></g></g></g><g class="node"><g fill="#ffffff" stroke="#000000" stroke-width="4"><circle cx="-34.723352070683546" cy="14.382883358732812" r="52"/></g><g transform="translate(-34.723352070683546 14.382883358732812)"><g transform="scale(0.6835940664062501) translate(0 0)"><g transform="translate(0 0)"><g font-family="sans-serif" font-size="50" font-weight="normal" fill="#000000" text-anchor="middle"><text xml:space="preserve" x="0" y="13.92822265625" stroke="none">Atom</text></g></g></g><g transform="translate(3.429011037612589e-15 -267.2)"><g transform="translate(0 0)"><g transform="translate(-93.84765625 0)" fill="white"><rect x="0" y="0" width="187.6953125" height="211.2" rx="0" ry="0" stroke="none"/><g font-family="sans-serif" font-size="16" font-weight="normal" fill="#000000" text-anchor="end"><text xml:space="preserve" x="130.7578125" y="14.05703125" stroke="none">atom_id:</text><text xml:space="preserve" x="135.203125" y="14.05703125" stroke="none" text-anchor="start">unique</text><text xml:space="preserve" x="130.7578125" y="33.25703125" stroke="none" text-anchor="end">type:</text><text xml:space="preserve" x="135.203125" y="33.25703125" stroke="none" text-anchor="start"></text><text xml:space="preserve" x="130.7578125" y="52.45703125" stroke="none" text-anchor="end">summary:</text><text xml:space="preserve" x="135.203125" y="52.45703125" stroke="none" text-anchor="start"></text><text xml:space="preserve" x="130.7578125" y="71.65703125" stroke="none" text-anchor="end">detail:</text><text xml:space="preserve" x="135.203125" y="71.65703125" stroke="none" text-anchor="start"></text><text xml:space="preserve" x="130.7578125" y="90.85703124999999" stroke="none" text-anchor="end">urgency:</text><text xml:space="preserve" x="135.203125" y="90.85703124999999" stroke="none" text-anchor="start"></text><text xml:space="preserve" x="130.7578125" y="110.05703125" stroke="none" text-anchor="end">confidence:</text><text xml:space="preserve" x="135.203125" y="110.05703125" stroke="none" text-anchor="start"></text><text xml:space="preserve" x="130.7578125" y="129.25703125" stroke="none" text-anchor="end">implicit_decision:</text><text xml:space="preserve" x="135.203125" y="129.25703125" stroke="none" text-anchor="start"></text><text xml:space="preserve" x="130.7578125" y="148.45703125" stroke="none" text-anchor="end">phase_relevance:</text><text xml:space="preserve" x="135.203125" y="148.45703125" stroke="none" text-anchor="start"></text><text xml:space="preserve" x="130.7578125" y="167.65703125" stroke="none" text-anchor="end">channel:</text><text xml:space="preserve" x="135.203125" y="167.65703125" stroke="none" text-anchor="start"></text><text xml:space="preserve" x="130.7578125" y="186.85703125" stroke="none" text-anchor="end">thread_ts:</text><text xml:space="preserve" x="135.203125" y="186.85703125" stroke="none" text-anchor="start"></text><text xml:space="preserve" x="130.7578125" y="206.05703125" stroke="none" text-anchor="end">created_at:</text><text xml:space="preserve" x="135.203125" y="206.05703125" stroke="none" text-anchor="start"></text></g></g></g></g></g></g><g class="node"><g fill="#ffffff" stroke="#000000" stroke-width="4"><circle cx="-374.0406654343803" cy="0" r="52"/></g><g transform="translate(-374.0406654343803 0)"><g transform="scale(0.32617254882812496) translate(0 0)"><g transform="translate(0 0)"><g font-family="sans-serif" font-size="50" font-weight="normal" fill="#000000" text-anchor="middle"><text xml:space="preserve" x="0" y="13.92822265625" stroke="none">Workstream</text></g></g></g><g transform="translate(-56 -9.599999999999993)"><g transform="translate(0 0)"><g transform="translate(-57.8046875 0)" fill="white"><rect x="0" y="0" width="57.8046875" height="19.2" rx="0" ry="0" stroke="none"/><g font-family="sans-serif" font-size="16" font-weight="normal" fill="#000000" text-anchor="end"><text xml:space="preserve" x="48.9140625" y="14.05703125" stroke="none">name:</text><text xml:space="preserve" x="53.359375" y="14.05703125" stroke="none" text-anchor="start"></text></g></g></g></g></g></g><g class="node"><g fill="#ffffff" stroke="#000000" stroke-width="4"><circle cx="-274.872375056483" cy="254.53190634453233" r="52"/></g><g transform="translate(-274.872375056483 254.53190634453233)"><g transform="scale(0.45703179296874996) translate(0 0)"><g transform="translate(0 0)"><g font-family="sans-serif" font-size="50" font-weight="normal" fill="#000000" text-anchor="middle"><text xml:space="preserve" x="0" y="13.92822265625" stroke="none">Channel</text></g></g></g><g transform="translate(-39.597979746446654 39.59797974644666)"><g transform="translate(0 0)"><g transform="translate(-57.8046875 0)" fill="white"><rect x="0" y="0" width="57.8046875" height="19.2" rx="0" ry="0" stroke="none"/><g font-family="sans-serif" font-size="16" font-weight="normal" fill="#000000" text-anchor="end"><text xml:space="preserve" x="48.9140625" y="14.05703125" stroke="none">name:</text><text xml:space="preserve" x="53.359375" y="14.05703125" stroke="none" text-anchor="start"></text></g></g></g></g></g></g><g class="node"><g fill="#ffffff" stroke="#000000" stroke-width="4"><circle cx="293.3263140219317" cy="-73.51775974808291" r="52"/></g><g transform="translate(293.3263140219317 -73.51775974808291)"><g transform="scale(0.5312504687499999) translate(0 0)"><g transform="translate(0 0)"><g font-family="sans-serif" font-size="50" font-weight="normal" fill="#000000" text-anchor="middle"><text xml:space="preserve" x="0" y="13.92822265625" stroke="none">Person</text></g></g></g><g transform="translate(39.59797974644666 -58.79797974644666)"><g transform="translate(0 0)"><g transform="translate(0 0)" fill="white"><rect x="0" y="0" width="118.3046875" height="19.2" rx="0" ry="0" stroke="none"/><g font-family="sans-serif" font-size="16" font-weight="normal" fill="#000000" text-anchor="end"><text xml:space="preserve" x="61.3671875" y="14.05703125" stroke="none">user_id:</text><text xml:space="preserve" x="65.8125" y="14.05703125" stroke="none" text-anchor="start">unique</text></g></g></g></g></g></g><g class="node"><g fill="#ffffff" stroke="#000000" stroke-width="4"><circle cx="205.425670915116" cy="254.53190634453233" r="52"/></g><g transform="translate(205.425670915116 254.53190634453233)"><g transform="scale(0.37304750195312497) translate(0 0)"><g transform="translate(0 0)"><g font-family="sans-serif" font-size="50" font-weight="normal" fill="#000000" text-anchor="middle"><text xml:space="preserve" x="0" y="13.92822265625" stroke="none">DigestRun</text></g></g></g><g transform="translate(3.429011037612589e-15 56)"><g transform="translate(0 0)"><g transform="translate(-57.36328125 0)" fill="white"><rect x="0" y="0" width="114.7265625" height="38.4" rx="0" ry="0" stroke="none"/><g font-family="sans-serif" font-size="16" font-weight="normal" fill="#000000" text-anchor="end"><text xml:space="preserve" x="105.8359375" y="14.05703125" stroke="none">sections_json:</text><text xml:space="preserve" x="110.28125" y="14.05703125" stroke="none" text-anchor="start"></text><text xml:space="preserve" x="105.8359375" y="33.25703125" stroke="none" text-anchor="end">generated_at:</text><text xml:space="preserve" x="110.28125" y="33.25703125" stroke="none" text-anchor="start"></text></g></g></g></g></g></g></g></svg>