<?xml version="1.0" encoding="UTF-8" standalone="no"?>
<!DOCTYPE svg PUBLIC "-//W3C//DTD SVG 1.1//EN"
 "http://www.w3.org/Graphics/SVG/1.1/DTD/svg11.dtd">
<!-- Generated by graphviz version 14.1.4 (20260321.0153)
 -->
<!-- Pages: 1 -->
<svg width="1306pt" height="483pt"
 viewBox="0.00 0.00 1306.00 483.00" xmlns="http://www.w3.org/2000/svg" xmlns:xlink="http://www.w3.org/1999/xlink">
<g id="graph0" class="graph" transform="scale(1 1) rotate(0) translate(4 478.5)">
<polygon fill="white" stroke="none" points="-4,4 -4,-478.5 1302,-478.5 1302,4 -4,4"/>
<!-- message -->
<g id="node1" class="node">
<title>message</title>
<polygon fill="none" stroke="black" points="11.38,-148 11.38,-174.5 247.12,-174.5 247.12,-148 11.38,-148"/>
<text xml:space="preserve" text-anchor="start" x="94.75" y="-155.3" font-family="Helvetica,sans-Serif" font-weight="bold" font-size="16.00">message</text>
<polygon fill="none" stroke="black" points="11.38,-123 11.38,-148 247.12,-148 247.12,-123 11.38,-123"/>
<text xml:space="preserve" text-anchor="start" x="16.38" y="-130.7" font-family="Helvetica,sans-Serif" text-decoration="underline" font-size="14.00">message_ts</text>
<text xml:space="preserve" text-anchor="start" x="89.88" y="-130.7" font-family="Helvetica,sans-Serif" font-size="14.00"> </text>
<text xml:space="preserve" text-anchor="start" x="93.62" y="-130.7" font-family="Helvetica,sans-Serif" font-size="14.00"> [VARCHAR]</text>
<text xml:space="preserve" text-anchor="start" x="170.88" y="-130.7" font-family="Helvetica,sans-Serif" font-size="14.00"> NOT NULL</text>
<polygon fill="none" stroke="black" points="11.38,-98 11.38,-123 247.12,-123 247.12,-98 11.38,-98"/>
<text xml:space="preserve" text-anchor="start" x="16.38" y="-105.7" font-family="Helvetica,sans-Serif" font-size="14.00">channel</text>
<text xml:space="preserve" text-anchor="start" x="63.62" y="-105.7" font-family="Helvetica,sans-Serif" font-size="14.00"> </text>
<text xml:space="preserve" text-anchor="start" x="67.38" y="-105.7" font-family="Helvetica,sans-Serif" font-size="14.00"> [VARCHAR]</text>
<text xml:space="preserve" text-anchor="start" x="144.62" y="-105.7" font-family="Helvetica,sans-Serif" font-size="14.00"> NOT NULL</text>
<polygon fill="none" stroke="black" points="11.38,-73 11.38,-98 247.12,-98 247.12,-73 11.38,-73"/>
<text xml:space="preserve" text-anchor="start" x="16.38" y="-80.7" font-family="Helvetica,sans-Serif" font-size="14.00">raw</text>
<text xml:space="preserve" text-anchor="start" x="38.12" y="-80.7" font-family="Helvetica,sans-Serif" font-size="14.00"> </text>
<text xml:space="preserve" text-anchor="start" x="41.88" y="-80.7" font-family="Helvetica,sans-Serif" font-size="14.00"> [JSON]</text>
<text xml:space="preserve" text-anchor="start" x="89.88" y="-80.7" font-family="Helvetica,sans-Serif" font-size="14.00"> NOT NULL</text>
<polygon fill="none" stroke="black" points="11.38,-48 11.38,-73 247.12,-73 247.12,-48 11.38,-48"/>
<text xml:space="preserve" text-anchor="start" x="16.38" y="-55.7" font-family="Helvetica,sans-Serif" font-size="14.00">thread_ts</text>
<text xml:space="preserve" text-anchor="start" x="72.62" y="-55.7" font-family="Helvetica,sans-Serif" font-size="14.00"> </text>
<text xml:space="preserve" text-anchor="start" x="76.38" y="-55.7" font-family="Helvetica,sans-Serif" font-size="14.00"> [VARCHAR]</text>
<polygon fill="none" stroke="black" points="11.38,-23 11.38,-48 247.12,-48 247.12,-23 11.38,-23"/>
<text xml:space="preserve" text-anchor="start" x="16.38" y="-30.7" font-family="Helvetica,sans-Serif" font-size="14.00">user_id</text>
<text xml:space="preserve" text-anchor="start" x="60.62" y="-30.7" font-family="Helvetica,sans-Serif" font-size="14.00"> </text>
<text xml:space="preserve" text-anchor="start" x="64.38" y="-30.7" font-family="Helvetica,sans-Serif" font-size="14.00"> [VARCHAR]</text>
<text xml:space="preserve" text-anchor="start" x="141.62" y="-30.7" font-family="Helvetica,sans-Serif" font-size="14.00"> NOT NULL</text>
</g>
<!-- message&#45;&#45;message -->
<g id="edge1" class="edge">
<title>message&#45;&#45;message</title>
<path fill="none" stroke="#7f7f7f" stroke-dasharray="5,2" d="M101.52,-178.14C106.09,-189.15 115.33,-196.5 129.25,-196.5 143.17,-196.5 152.41,-189.15 156.98,-178.14"/>
<text xml:space="preserve" text-anchor="start" x="132.98" y="-181.89" font-family="Times,serif" font-size="14.00">0..N</text>
<text xml:space="preserve" text-anchor="start" x="101.52" y="-181.89" font-family="Times,serif" font-size="14.00">{0,1}</text>
</g>
<!-- thread_bundle -->
<g id="node2" class="node">
<title>thread_bundle</title>
<polygon fill="none" stroke="black" points="339.5,-187 339.5,-213.5 606,-213.5 606,-187 339.5,-187"/>
<text xml:space="preserve" text-anchor="start" x="417.62" y="-194.3" font-family="Helvetica,sans-Serif" font-weight="bold" font-size="16.00">thread_bundle</text>
<polygon fill="none" stroke="black" points="339.5,-162 339.5,-187 606,-187 606,-162 339.5,-162"/>
<text xml:space="preserve" text-anchor="start" x="344.5" y="-169.7" font-family="Helvetica,sans-Serif" text-decoration="underline" font-size="14.00">root_message_ts</text>
<text xml:space="preserve" text-anchor="start" x="448.75" y="-169.7" font-family="Helvetica,sans-Serif" font-size="14.00"> </text>
<text xml:space="preserve" text-anchor="start" x="452.5" y="-169.7" font-family="Helvetica,sans-Serif" font-size="14.00"> [VARCHAR]</text>
<text xml:space="preserve" text-anchor="start" x="529.75" y="-169.7" font-family="Helvetica,sans-Serif" font-size="14.00"> NOT NULL</text>
<polygon fill="none" stroke="black" points="339.5,-137 339.5,-162 606,-162 606,-137 339.5,-137"/>
<text xml:space="preserve" text-anchor="start" x="344.5" y="-144.7" font-family="Helvetica,sans-Serif" font-size="14.00">channel</text>
<text xml:space="preserve" text-anchor="start" x="391.75" y="-144.7" font-family="Helvetica,sans-Serif" font-size="14.00"> </text>
<text xml:space="preserve" text-anchor="start" x="395.5" y="-144.7" font-family="Helvetica,sans-Serif" font-size="14.00"> [VARCHAR]</text>
<text xml:space="preserve" text-anchor="start" x="472.75" y="-144.7" font-family="Helvetica,sans-Serif" font-size="14.00"> NOT NULL</text>
<polygon fill="none" stroke="black" points="339.5,-112 339.5,-137 606,-137 606,-112 339.5,-112"/>
<text xml:space="preserve" text-anchor="start" x="344.5" y="-119.7" font-family="Helvetica,sans-Serif" font-size="14.00">created_at</text>
<text xml:space="preserve" text-anchor="start" x="408.25" y="-119.7" font-family="Helvetica,sans-Serif" font-size="14.00"> </text>
<text xml:space="preserve" text-anchor="start" x="412" y="-119.7" font-family="Helvetica,sans-Serif" font-size="14.00"> [DATETIME]</text>
<text xml:space="preserve" text-anchor="start" x="492.25" y="-119.7" font-family="Helvetica,sans-Serif" font-size="14.00"> NOT NULL</text>
</g>
<!-- message&#45;&#45;thread_bundle -->
<g id="edge2" class="edge">
<title>message&#45;&#45;thread_bundle</title>
<path fill="none" stroke="#7f7f7f" stroke-dasharray="5,2" d="M254.99,-122.13C279.95,-126.8 306.33,-131.75 331.76,-136.52"/>
<text xml:space="preserve" text-anchor="start" x="325.01" y="-140.27" font-family="Times,serif" font-size="14.00">1</text>
<text xml:space="preserve" text-anchor="start" x="254.99" y="-109.38" font-family="Times,serif" font-size="14.00">1</text>
</g>
<!-- bundle_membership -->
<g id="node3" class="node">
<title>bundle_membership</title>
<polygon fill="none" stroke="black" points="695.75,-129 695.75,-155.5 931.5,-155.5 931.5,-129 695.75,-129"/>
<text xml:space="preserve" text-anchor="start" x="735.25" y="-136.3" font-family="Helvetica,sans-Serif" font-weight="bold" font-size="16.00">bundle_membership</text>
<polygon fill="none" stroke="black" points="695.75,-104 695.75,-129 931.5,-129 931.5,-104 695.75,-104"/>
<text xml:space="preserve" text-anchor="start" x="700.75" y="-111.7" font-family="Helvetica,sans-Serif" text-decoration="underline" font-size="14.00">message_ts</text>
<text xml:space="preserve" text-anchor="start" x="774.25" y="-111.7" font-family="Helvetica,sans-Serif" font-size="14.00"> </text>
<text xml:space="preserve" text-anchor="start" x="778" y="-111.7" font-family="Helvetica,sans-Serif" font-size="14.00"> [VARCHAR]</text>
<text xml:space="preserve" text-anchor="start" x="855.25" y="-111.7" font-family="Helvetica,sans-Serif" font-size="14.00"> NOT NULL</text>
<polygon fill="none" stroke="black" points="695.75,-79 695.75,-104 931.5,-104 931.5,-79 695.75,-79"/>
<text xml:space="preserve" text-anchor="start" x="700.75" y="-86.7" font-family="Helvetica,sans-Serif" font-size="14.00">bundle_ts</text>
<text xml:space="preserve" text-anchor="start" x="759.25" y="-86.7" font-family="Helvetica,sans-Serif" font-size="14.00"> </text>
<text xml:space="preserve" text-anchor="start" x="763" y="-86.7" font-family="Helvetica,sans-Serif" font-size="14.00"> [VARCHAR]</text>
<text xml:space="preserve" text-anchor="start" x="840.25" y="-86.7" font-family="Helvetica,sans-Serif" font-size="14.00"> NOT NULL</text>
<polygon fill="none" stroke="black" points="695.75,-54 695.75,-79 931.5,-79 931.5,-54 695.75,-54"/>
<text xml:space="preserve" text-anchor="start" x="700.75" y="-61.7" font-family="Helvetica,sans-Serif" font-size="14.00">confidence</text>
<text xml:space="preserve" text-anchor="start" x="766" y="-61.7" font-family="Helvetica,sans-Serif" font-size="14.00"> </text>
<text xml:space="preserve" text-anchor="start" x="769.75" y="-61.7" font-family="Helvetica,sans-Serif" font-size="14.00"> [FLOAT]</text>
<text xml:space="preserve" text-anchor="start" x="825.25" y="-61.7" font-family="Helvetica,sans-Serif" font-size="14.00"> NOT NULL</text>
<polygon fill="none" stroke="black" points="695.75,-29 695.75,-54 931.5,-54 931.5,-29 695.75,-29"/>
<text xml:space="preserve" text-anchor="start" x="700.75" y="-36.7" font-family="Helvetica,sans-Serif" font-size="14.00">ordinal</text>
<text xml:space="preserve" text-anchor="start" x="741.25" y="-36.7" font-family="Helvetica,sans-Serif" font-size="14.00"> </text>
<text xml:space="preserve" text-anchor="start" x="745" y="-36.7" font-family="Helvetica,sans-Serif" font-size="14.00"> [INTEGER]</text>
<text xml:space="preserve" text-anchor="start" x="817" y="-36.7" font-family="Helvetica,sans-Serif" font-size="14.00"> NOT NULL</text>
<polygon fill="none" stroke="black" points="695.75,-4 695.75,-29 931.5,-29 931.5,-4 695.75,-4"/>
<text xml:space="preserve" text-anchor="start" x="700.75" y="-11.7" font-family="Helvetica,sans-Serif" font-size="14.00">role</text>
<text xml:space="preserve" text-anchor="start" x="723.25" y="-11.7" font-family="Helvetica,sans-Serif" font-size="14.00"> </text>
<text xml:space="preserve" text-anchor="start" x="727" y="-11.7" font-family="Helvetica,sans-Serif" font-size="14.00"> [VARCHAR(12)]</text>
<text xml:space="preserve" text-anchor="start" x="828.25" y="-11.7" font-family="Helvetica,sans-Serif" font-size="14.00"> NOT NULL</text>
</g>
<!-- message&#45;&#45;bundle_membership -->
<g id="edge3" class="edge">
<title>message&#45;&#45;bundle_membership</title>
<path fill="none" stroke="#7f7f7f" stroke-dasharray="5,2" d="M255.01,-95.28C377.98,-91.85 564.84,-86.65 687.82,-83.22"/>
<text xml:space="preserve" text-anchor="start" x="681.07" y="-70.47" font-family="Times,serif" font-size="14.00">1</text>
<text xml:space="preserve" text-anchor="start" x="255.01" y="-82.53" font-family="Times,serif" font-size="14.00">1</text>
</g>
<!-- thread_bundle&#45;&#45;bundle_membership -->
<g id="edge4" class="edge">
<title>thread_bundle&#45;&#45;bundle_membership</title>
<path fill="none" stroke="#7f7f7f" stroke-dasharray="5,2" d="M613.54,-128.51C638.15,-122.48 663.63,-116.24 687.8,-110.32"/>
<text xml:space="preserve" text-anchor="start" x="663.8" y="-97.57" font-family="Times,serif" font-size="14.00">0..N</text>
<text xml:space="preserve" text-anchor="start" x="613.54" y="-115.76" font-family="Times,serif" font-size="14.00">1</text>
</g>
<!-- context_window -->
<g id="node4" class="node">
<title>context_window</title>
<polygon fill="none" stroke="black" points="695,-307 695,-333.5 932.25,-333.5 932.25,-307 695,-307"/>
<text xml:space="preserve" text-anchor="start" x="751" y="-314.3" font-family="Helvetica,sans-Serif" font-weight="bold" font-size="16.00">context_window</text>
<polygon fill="none" stroke="black" points="695,-282 695,-307 932.25,-307 932.25,-282 695,-282"/>
<text xml:space="preserve" text-anchor="start" x="700" y="-289.7" font-family="Helvetica,sans-Serif" text-decoration="underline" font-size="14.00">bundle_ts</text>
<text xml:space="preserve" text-anchor="start" x="758.5" y="-289.7" font-family="Helvetica,sans-Serif" font-size="14.00"> </text>
<text xml:space="preserve" text-anchor="start" x="762.25" y="-289.7" font-family="Helvetica,sans-Serif" font-size="14.00"> [VARCHAR]</text>
<text xml:space="preserve" text-anchor="start" x="839.5" y="-289.7" font-family="Helvetica,sans-Serif" font-size="14.00"> NOT NULL</text>
<polygon fill="none" stroke="black" points="695,-257 695,-282 932.25,-282 932.25,-257 695,-257"/>
<text xml:space="preserve" text-anchor="start" x="700" y="-264.7" font-family="Helvetica,sans-Serif" font-size="14.00">channel</text>
<text xml:space="preserve" text-anchor="start" x="747.25" y="-264.7" font-family="Helvetica,sans-Serif" font-size="14.00"> </text>
<text xml:space="preserve" text-anchor="start" x="751" y="-264.7" font-family="Helvetica,sans-Serif" font-size="14.00"> [VARCHAR]</text>
<text xml:space="preserve" text-anchor="start" x="828.25" y="-264.7" font-family="Helvetica,sans-Serif" font-size="14.00"> NOT NULL</text>
<polygon fill="none" stroke="black" points="695,-232 695,-257 932.25,-257 932.25,-232 695,-232"/>
<text xml:space="preserve" text-anchor="start" x="700" y="-239.7" font-family="Helvetica,sans-Serif" font-size="14.00">compressed</text>
<text xml:space="preserve" text-anchor="start" x="774.25" y="-239.7" font-family="Helvetica,sans-Serif" font-size="14.00"> </text>
<text xml:space="preserve" text-anchor="start" x="778" y="-239.7" font-family="Helvetica,sans-Serif" font-size="14.00"> [BOOLEAN]</text>
<text xml:space="preserve" text-anchor="start" x="856" y="-239.7" font-family="Helvetica,sans-Serif" font-size="14.00"> NOT NULL</text>
<polygon fill="none" stroke="black" points="695,-207 695,-232 932.25,-232 932.25,-207 695,-207"/>
<text xml:space="preserve" text-anchor="start" x="700" y="-214.7" font-family="Helvetica,sans-Serif" font-size="14.00">created_at</text>
<text xml:space="preserve" text-anchor="start" x="763.75" y="-214.7" font-family="Helvetica,sans-Serif" font-size="14.00"> </text>
<text xml:space="preserve" text-anchor="start" x="767.5" y="-214.7" font-family="Helvetica,sans-Serif" font-size="14.00"> [DATETIME]</text>
<text xml:space="preserve" text-anchor="start" x="847.75" y="-214.7" font-family="Helvetica,sans-Serif" font-size="14.00"> NOT NULL</text>
<polygon fill="none" stroke="black" points="695,-182 695,-207 932.25,-207 932.25,-182 695,-182"/>
<text xml:space="preserve" text-anchor="start" x="700" y="-189.7" font-family="Helvetica,sans-Serif" font-size="14.00">raw</text>
<text xml:space="preserve" text-anchor="start" x="721.75" y="-189.7" font-family="Helvetica,sans-Serif" font-size="14.00"> </text>
<text xml:space="preserve" text-anchor="start" x="725.5" y="-189.7" font-family="Helvetica,sans-Serif" font-size="14.00"> [JSON]</text>
<text xml:space="preserve" text-anchor="start" x="773.5" y="-189.7" font-family="Helvetica,sans-Serif" font-size="14.00"> NOT NULL</text>
</g>
<!-- thread_bundle&#45;&#45;context_window -->
<g id="edge5" class="edge">
<title>thread_bundle&#45;&#45;context_window</title>
<path fill="none" stroke="#7f7f7f" stroke-dasharray="5,2" d="M613.54,-201.94C637.97,-208.79 663.25,-215.87 687.26,-222.61"/>
<text xml:space="preserve" text-anchor="start" x="680.51" y="-209.86" font-family="Times,serif" font-size="14.00">1</text>
<text xml:space="preserve" text-anchor="start" x="613.54" y="-189.19" font-family="Times,serif" font-size="14.00">1</text>
</g>
<!-- atom -->
<g id="node5" class="node">
<title>atom</title>
<polygon fill="none" stroke="black" points="1021.25,-369.5 1021.25,-396 1290,-396 1290,-369.5 1021.25,-369.5"/>
<text xml:space="preserve" text-anchor="start" x="1136.5" y="-376.8" font-family="Helvetica,sans-Serif" font-weight="bold" font-size="16.00">atom</text>
<polygon fill="none" stroke="black" points="1021.25,-344.5 1021.25,-369.5 1290,-369.5 1290,-344.5 1021.25,-344.5"/>
<text xml:space="preserve" text-anchor="start" x="1026.25" y="-352.2" font-family="Helvetica,sans-Serif" text-decoration="underline" font-size="14.00">atom_id</text>
<text xml:space="preserve" text-anchor="start" x="1075" y="-352.2" font-family="Helvetica,sans-Serif" font-size="14.00"> </text>
<text xml:space="preserve" text-anchor="start" x="1078.75" y="-352.2" font-family="Helvetica,sans-Serif" font-size="14.00"> [CHAR(32)]</text>
<text xml:space="preserve" text-anchor="start" x="1152.25" y="-352.2" font-family="Helvetica,sans-Serif" font-size="14.00"> NOT NULL</text>
<polygon fill="none" stroke="black" points="1021.25,-319.5 1021.25,-344.5 1290,-344.5 1290,-319.5 1021.25,-319.5"/>
<text xml:space="preserve" text-anchor="start" x="1026.25" y="-327.2" font-family="Helvetica,sans-Serif" font-size="14.00">confidence</text>
<text xml:space="preserve" text-anchor="start" x="1091.5" y="-327.2" font-family="Helvetica,sans-Serif" font-size="14.00"> </text>
<text xml:space="preserve" text-anchor="start" x="1095.25" y="-327.2" font-family="Helvetica,sans-Serif" font-size="14.00"> [FLOAT]</text>
<text xml:space="preserve" text-anchor="start" x="1150.75" y="-327.2" font-family="Helvetica,sans-Serif" font-size="14.00"> NOT NULL</text>
<polygon fill="none" stroke="black" points="1021.25,-294.5 1021.25,-319.5 1290,-319.5 1290,-294.5 1021.25,-294.5"/>
<text xml:space="preserve" text-anchor="start" x="1026.25" y="-302.2" font-family="Helvetica,sans-Serif" font-size="14.00">created_at</text>
<text xml:space="preserve" text-anchor="start" x="1090" y="-302.2" font-family="Helvetica,sans-Serif" font-size="14.00"> </text>
<text xml:space="preserve" text-anchor="start" x="1093.75" y="-302.2" font-family="Helvetica,sans-Serif" font-size="14.00"> [DATETIME]</text>
<text xml:space="preserve" text-anchor="start" x="1174" y="-302.2" font-family="Helvetica,sans-Serif" font-size="14.00"> NOT NULL</text>
<polygon fill="none" stroke="black" points="1021.25,-269.5 1021.25,-294.5 1290,-294.5 1290,-269.5 1021.25,-269.5"/>
<text xml:space="preserve" text-anchor="start" x="1026.25" y="-277.2" font-family="Helvetica,sans-Serif" font-size="14.00">detail</text>
<text xml:space="preserve" text-anchor="start" x="1058.5" y="-277.2" font-family="Helvetica,sans-Serif" font-size="14.00"> </text>
<text xml:space="preserve" text-anchor="start" x="1062.25" y="-277.2" font-family="Helvetica,sans-Serif" font-size="14.00"> [TEXT]</text>
<text xml:space="preserve" text-anchor="start" x="1108" y="-277.2" font-family="Helvetica,sans-Serif" font-size="14.00"> NOT NULL</text>
<polygon fill="none" stroke="black" points="1021.25,-244.5 1021.25,-269.5 1290,-269.5 1290,-244.5 1021.25,-244.5"/>
<text xml:space="preserve" text-anchor="start" x="1026.25" y="-252.2" font-family="Helvetica,sans-Serif" font-size="14.00">implicit_decision</text>
<text xml:space="preserve" text-anchor="start" x="1125.25" y="-252.2" font-family="Helvetica,sans-Serif" font-size="14.00"> </text>
<text xml:space="preserve" text-anchor="start" x="1129" y="-252.2" font-family="Helvetica,sans-Serif" font-size="14.00"> [BOOLEAN]</text>
<text xml:space="preserve" text-anchor="start" x="1207" y="-252.2" font-family="Helvetica,sans-Serif" font-size="14.00"> NOT NULL</text>
<polygon fill="none" stroke="black" points="1021.25,-219.5 1021.25,-244.5 1290,-244.5 1290,-219.5 1021.25,-219.5"/>
<text xml:space="preserve" text-anchor="start" x="1026.25" y="-227.2" font-family="Helvetica,sans-Serif" font-size="14.00">source</text>
<text xml:space="preserve" text-anchor="start" x="1066.75" y="-227.2" font-family="Helvetica,sans-Serif" font-size="14.00"> </text>
<text xml:space="preserve" text-anchor="start" x="1070.5" y="-227.2" font-family="Helvetica,sans-Serif" font-size="14.00"> [JSON]</text>
<text xml:space="preserve" text-anchor="start" x="1118.5" y="-227.2" font-family="Helvetica,sans-Serif" font-size="14.00"> NOT NULL</text>
<polygon fill="none" stroke="black" points="1021.25,-194.5 1021.25,-219.5 1290,-219.5 1290,-194.5 1021.25,-194.5"/>
<text xml:space="preserve" text-anchor="start" x="1026.25" y="-202.2" font-family="Helvetica,sans-Serif" font-size="14.00">source_bundle_ts</text>
<text xml:space="preserve" text-anchor="start" x="1132.75" y="-202.2" font-family="Helvetica,sans-Serif" font-size="14.00"> </text>
<text xml:space="preserve" text-anchor="start" x="1136.5" y="-202.2" font-family="Helvetica,sans-Serif" font-size="14.00"> [VARCHAR]</text>
<text xml:space="preserve" text-anchor="start" x="1213.75" y="-202.2" font-family="Helvetica,sans-Serif" font-size="14.00"> NOT NULL</text>
<polygon fill="none" stroke="black" points="1021.25,-169.5 1021.25,-194.5 1290,-194.5 1290,-169.5 1021.25,-169.5"/>
<text xml:space="preserve" text-anchor="start" x="1026.25" y="-177.2" font-family="Helvetica,sans-Serif" font-size="14.00">summary</text>
<text xml:space="preserve" text-anchor="start" x="1083.25" y="-177.2" font-family="Helvetica,sans-Serif" font-size="14.00"> </text>
<text xml:space="preserve" text-anchor="start" x="1087" y="-177.2" font-family="Helvetica,sans-Serif" font-size="14.00"> [TEXT]</text>
<text xml:space="preserve" text-anchor="start" x="1132.75" y="-177.2" font-family="Helvetica,sans-Serif" font-size="14.00"> NOT NULL</text>
<polygon fill="none" stroke="black" points="1021.25,-144.5 1021.25,-169.5 1290,-169.5 1290,-144.5 1021.25,-144.5"/>
<text xml:space="preserve" text-anchor="start" x="1026.25" y="-152.2" font-family="Helvetica,sans-Serif" font-size="14.00">type</text>
<text xml:space="preserve" text-anchor="start" x="1051.75" y="-152.2" font-family="Helvetica,sans-Serif" font-size="14.00"> </text>
<text xml:space="preserve" text-anchor="start" x="1055.5" y="-152.2" font-family="Helvetica,sans-Serif" font-size="14.00"> [VARCHAR(13)]</text>
<text xml:space="preserve" text-anchor="start" x="1156.75" y="-152.2" font-family="Helvetica,sans-Serif" font-size="14.00"> NOT NULL</text>
<polygon fill="none" stroke="black" points="1021.25,-119.5 1021.25,-144.5 1290,-144.5 1290,-119.5 1021.25,-119.5"/>
<text xml:space="preserve" text-anchor="start" x="1026.25" y="-127.2" font-family="Helvetica,sans-Serif" font-size="14.00">urgency</text>
<text xml:space="preserve" text-anchor="start" x="1074.25" y="-127.2" font-family="Helvetica,sans-Serif" font-size="14.00"> </text>
<text xml:space="preserve" text-anchor="start" x="1078" y="-127.2" font-family="Helvetica,sans-Serif" font-size="14.00"> [VARCHAR(8)]</text>
<text xml:space="preserve" text-anchor="start" x="1171.75" y="-127.2" font-family="Helvetica,sans-Serif" font-size="14.00"> NOT NULL</text>
</g>
<!-- context_window&#45;&#45;atom -->
<g id="edge6" class="edge">
<title>context_window&#45;&#45;atom</title>
<path fill="none" stroke="#7f7f7f" stroke-dasharray="5,2" d="M939.78,-257.75C963.73,-257.75 988.96,-257.75 1013.38,-257.75"/>
<text xml:space="preserve" text-anchor="start" x="989.38" y="-245" font-family="Times,serif" font-size="14.00">0..N</text>
<text xml:space="preserve" text-anchor="start" x="939.78" y="-245" font-family="Times,serif" font-size="14.00">1</text>
</g>
<!-- batch_log -->
<g id="node6" class="node">
<title>batch_log</title>
<polygon fill="none" stroke="black" points="8,-444 8,-470.5 250.5,-470.5 250.5,-444 8,-444"/>
<text xml:space="preserve" text-anchor="start" x="91.38" y="-451.3" font-family="Helvetica,sans-Serif" font-weight="bold" font-size="16.00">batch_log</text>
<polygon fill="none" stroke="black" points="8,-419 8,-444 250.5,-444 250.5,-419 8,-419"/>
<text xml:space="preserve" text-anchor="start" x="13" y="-426.7" font-family="Helvetica,sans-Serif" text-decoration="underline" font-size="14.00">id</text>
<text xml:space="preserve" text-anchor="start" x="23.5" y="-426.7" font-family="Helvetica,sans-Serif" font-size="14.00"> </text>
<text xml:space="preserve" text-anchor="start" x="27.25" y="-426.7" font-family="Helvetica,sans-Serif" font-size="14.00"> [INTEGER]</text>
<text xml:space="preserve" text-anchor="start" x="99.25" y="-426.7" font-family="Helvetica,sans-Serif" font-size="14.00"> NOT NULL</text>
<polygon fill="none" stroke="black" points="8,-394 8,-419 250.5,-419 250.5,-394 8,-394"/>
<text xml:space="preserve" text-anchor="start" x="13" y="-401.7" font-family="Helvetica,sans-Serif" font-size="14.00">batch_id</text>
<text xml:space="preserve" text-anchor="start" x="64" y="-401.7" font-family="Helvetica,sans-Serif" font-size="14.00"> </text>
<text xml:space="preserve" text-anchor="start" x="67.75" y="-401.7" font-family="Helvetica,sans-Serif" font-size="14.00"> [VARCHAR]</text>
<text xml:space="preserve" text-anchor="start" x="145" y="-401.7" font-family="Helvetica,sans-Serif" font-size="14.00"> NOT NULL</text>
<polygon fill="none" stroke="black" points="8,-369 8,-394 250.5,-394 250.5,-369 8,-369"/>
<text xml:space="preserve" text-anchor="start" x="13" y="-376.7" font-family="Helvetica,sans-Serif" font-size="14.00">completed_at</text>
<text xml:space="preserve" text-anchor="start" x="94.75" y="-376.7" font-family="Helvetica,sans-Serif" font-size="14.00"> </text>
<text xml:space="preserve" text-anchor="start" x="98.5" y="-376.7" font-family="Helvetica,sans-Serif" font-size="14.00"> [DATETIME]</text>
<polygon fill="none" stroke="black" points="8,-344 8,-369 250.5,-369 250.5,-344 8,-344"/>
<text xml:space="preserve" text-anchor="start" x="13" y="-351.7" font-family="Helvetica,sans-Serif" font-size="14.00">created_at</text>
<text xml:space="preserve" text-anchor="start" x="76.75" y="-351.7" font-family="Helvetica,sans-Serif" font-size="14.00"> </text>
<text xml:space="preserve" text-anchor="start" x="80.5" y="-351.7" font-family="Helvetica,sans-Serif" font-size="14.00"> [DATETIME]</text>
<text xml:space="preserve" text-anchor="start" x="160.75" y="-351.7" font-family="Helvetica,sans-Serif" font-size="14.00"> NOT NULL</text>
<polygon fill="none" stroke="black" points="8,-319 8,-344 250.5,-344 250.5,-319 8,-319"/>
<text xml:space="preserve" text-anchor="start" x="13" y="-326.7" font-family="Helvetica,sans-Serif" font-size="14.00">request_body</text>
<text xml:space="preserve" text-anchor="start" x="94.75" y="-326.7" font-family="Helvetica,sans-Serif" font-size="14.00"> </text>
<text xml:space="preserve" text-anchor="start" x="98.5" y="-326.7" font-family="Helvetica,sans-Serif" font-size="14.00"> [JSON]</text>
<text xml:space="preserve" text-anchor="start" x="146.5" y="-326.7" font-family="Helvetica,sans-Serif" font-size="14.00"> NOT NULL</text>
<polygon fill="none" stroke="black" points="8,-294 8,-319 250.5,-319 250.5,-294 8,-294"/>
<text xml:space="preserve" text-anchor="start" x="13" y="-301.7" font-family="Helvetica,sans-Serif" font-size="14.00">request_count</text>
<text xml:space="preserve" text-anchor="start" x="98.5" y="-301.7" font-family="Helvetica,sans-Serif" font-size="14.00"> </text>
<text xml:space="preserve" text-anchor="start" x="102.25" y="-301.7" font-family="Helvetica,sans-Serif" font-size="14.00"> [INTEGER]</text>
<text xml:space="preserve" text-anchor="start" x="174.25" y="-301.7" font-family="Helvetica,sans-Serif" font-size="14.00"> NOT NULL</text>
<polygon fill="none" stroke="black" points="8,-269 8,-294 250.5,-294 250.5,-269 8,-269"/>
<text xml:space="preserve" text-anchor="start" x="13" y="-276.7" font-family="Helvetica,sans-Serif" font-size="14.00">response_body</text>
<text xml:space="preserve" text-anchor="start" x="105.25" y="-276.7" font-family="Helvetica,sans-Serif" font-size="14.00"> </text>
<text xml:space="preserve" text-anchor="start" x="109" y="-276.7" font-family="Helvetica,sans-Serif" font-size="14.00"> [JSON]</text>
<polygon fill="none" stroke="black" points="8,-244 8,-269 250.5,-269 250.5,-244 8,-244"/>
<text xml:space="preserve" text-anchor="start" x="13" y="-251.7" font-family="Helvetica,sans-Serif" font-size="14.00">stage</text>
<text xml:space="preserve" text-anchor="start" x="46" y="-251.7" font-family="Helvetica,sans-Serif" font-size="14.00"> </text>
<text xml:space="preserve" text-anchor="start" x="49.75" y="-251.7" font-family="Helvetica,sans-Serif" font-size="14.00"> [VARCHAR]</text>
<text xml:space="preserve" text-anchor="start" x="127" y="-251.7" font-family="Helvetica,sans-Serif" font-size="14.00"> NOT NULL</text>
<polygon fill="none" stroke="black" points="8,-219 8,-244 250.5,-244 250.5,-219 8,-219"/>
<text xml:space="preserve" text-anchor="start" x="13" y="-226.7" font-family="Helvetica,sans-Serif" font-size="14.00">status</text>
<text xml:space="preserve" text-anchor="start" x="49" y="-226.7" font-family="Helvetica,sans-Serif" font-size="14.00"> </text>
<text xml:space="preserve" text-anchor="start" x="52.75" y="-226.7" font-family="Helvetica,sans-Serif" font-size="14.00"> [VARCHAR]</text>
<text xml:space="preserve" text-anchor="start" x="130" y="-226.7" font-family="Helvetica,sans-Serif" font-size="14.00"> NOT NULL</text>
</g>
</g>
</svg>
